<svg version="1.1" viewBox="0.0 0.0 600.0 371.0" fill="none" stroke="none" stroke-linecap="square" stroke-miterlimit="10" width="600" height="371" xmlns:xlink="http://www.w3.org/1999/xlink" xmlns="http://www.w3.org/2000/svg"><path fill="#faefde" d="M0 0L600.0 0L600.0 371.0L0 371.0L0 0Z" fill-rule="nonzero"/><path stroke="#262422" stroke-width="1.0" stroke-linecap="butt" d="M83.5 18.5L83.5 304.5" fill-rule="nonzero"/><path stroke="#c5bcaf" stroke-width="1.0" stroke-linecap="butt" d="M177.5 18.5L177.5 304.5" fill-rule="nonzero"/><path stroke="#c5bcaf" stroke-width="1.0" stroke-linecap="butt" d="M270.5 18.5L270.5 304.5" fill-rule="nonzero"/><path stroke="#c5bcaf" stroke-width="1.0" stroke-linecap="butt" d="M364.5 18.5L364.5 304.5" fill-rule="nonzero"/><path stroke="#c5bcaf" stroke-width="1.0" stroke-linecap="butt" d="M457.5 18.5L457.5 304.5" fill-rule="nonzero"/><path stroke="#c5bcaf" stroke-width="1.0" stroke-linecap="butt" d="M551.5 18.5L551.5 304.5" fill-rule="nonzero"/><clipPath id="id_0"><path d="M83.5 18.55L551.5 18.55L551.5 304.45L83.5 304.45L83.5 18.55Z" clip-rule="nonzero"/></clipPath><path stroke="#000000" stroke-width="2.0" stroke-linecap="butt" stroke-opacity="0.0" clip-path="url(#id_0)" d="M83.0 46.0L83.0 28.0L340.0 28.0C341.10458 28.0 342.0 28.89543 342.0 30.0L342.0 44.0C342.0 45.10457 341.10458 46.0 340.0 46.0Z" fill-rule="nonzero"/><path fill="#c44536" clip-path="url(#id_0)" d="M83.0 46.0L83.0 28.0L340.0 28.0C341.10458 28.0 342.0 28.89543 342.0 30.0L342.0 44.0C342.0 45.10457 341.10458 46.0 340.0 46.0Z" fill-rule="nonzero"/><path stroke="#000000" stroke-width="2.0" stroke-linecap="butt" stroke-opacity="0.0" clip-path="url(#id_0)" d="M83.0 74.0L83.0 56.0L485.0 56.0C486.10458 56.0 487.0 56.89543 487.0 58.0L487.0 72.0C487.0 73.10457 486.10458 74.0 485.0 74.0Z" fill-rule="nonzero"/><path fill="#c44536" clip-path="url(#id_0)" d="M83.0 74.0L83.0 56.0L485.0 56.0C486.10458 56.0 487.0 56.89543 487.0 58.0L487.0 72.0C487.0 73.10457 486.10458 74.0 485.0 74.0Z" fill-rule="nonzero"/><path stroke="#000000" stroke-width="2.0" stroke-linecap="butt" stroke-opacity="0.0" stroke-dasharray="2.0,3.0" clip-path="url(#id_0)" d="M83.0 101.0L83.0 83.0L147.0 83.0C148.10457 83.0 149.0 83.89543 149.0 85.0L149.0 99.0C149.0 100.10457 148.10457 101.0 147.0 101.0Z" fill-rule="nonzero"/><path fill="#c44536" clip-path="url(#id_0)" d="M83.0 101.0L83.0 83.0L147.0 83.0C148.10457 83.0 149.0 83.89543 149.0 85.0L149.0 99.0C149.0 100.10457 148.10457 101.0 147.0 101.0Z" fill-rule="nonzero"/><path stroke="#000000" stroke-width="2.0" stroke-linecap="butt" stroke-opacity="0.0" stroke-dasharray="2.0,3.0" clip-path="url(#id_0)" d="M83.0 129.0L83.0 111.0L91.0 111.0C92.10457 111.0 93.0 111.89543 93.0 113.0L93.0 127.0C93.0 128.10457 92.10457 129.0 91.0 129.0Z" fill-rule="nonzero"/><path fill="#c44536" clip-path="url(#id_0)" d="M83.0 129.0L83.0 111.0L91.0 111.0C92.10457 111.0 93.0 111.89543 93.0 113.0L93.0 127.0C93.0 128.10457 92.10457 129.0 91.0 129.0Z" fill-rule="nonzero"/><path stroke="#000000" stroke-width="2.0" stroke-linecap="butt" stroke-opacity="0.0" stroke-dasharray="2.0,3.0" clip-path="url(#id_0)" d="M83.0 157.0L83.0 139.0L133.0 139.0C134.10457 139.0 135.0 139.89543 135.0 141.0L135.0 155.0C135.0 156.10457 134.10457 157.0 133.0 157.0Z" fill-rule="nonzero"/><path fill="#c44536" clip-path="url(#id_0)" d="M83.0 157.0L83.0 139.0L133.0 139.0C134.10457 139.0 135.0 139.89543 135.0 141.0L135.0 155.0C135.0 156.10457 134.10457 157.0 133.0 157.0Z" fill-rule="nonzero"/><path stroke="#000000" stroke-width="2.0" stroke-linecap="butt" stroke-opacity="0.0" stroke-dasharray="2.0,3.0" clip-path="url(#id_0)" d="M83.0 184.0L83.0 166.0L165.0 166.0C166.10457 166.0 167.0 166.89543 167.0 168.0L167.0 182.0C167.0 183.10457 166.10457 184.0 165.0 184.0Z" fill-rule="nonzero"/><path fill="#c44536" clip-path="url(#id_0)" d="M83.0 184.0L83.0 166.0L165.0 166.0C166.10457 166.0 167.0 166.89543 167.0 168.0L167.0 182.0C167.0 183.10457 166.10457 184.0 165.0 184.0Z" fill-rule="nonzero"/><path stroke="#000000" stroke-width="2.0" stroke-linecap="butt" stroke-opacity="0.0" stroke-dasharray="2.0,3.0" clip-path="url(#id_0)" d="M83.0 212.0L83.0 194.0L108.0 194.0C109.10457 194.0 110.0 194.89543 110.0 196.0L110.0 210.0C110.0 211.10457 109.10457 212.0 108.0 212.0Z" fill-rule="nonzero"/><path fill="#c44536" clip-path="url(#id_0)" d="M83.0 212.0L83.0 194.0L108.0 194.0C109.10457 194.0 110.0 194.89543 110.0 196.0L110.0 210.0C110.0 211.10457 109.10457 212.0 108.0 212.0Z" fill-rule="nonzero"/><path stroke="#000000" stroke-width="2.0" stroke-linecap="butt" stroke-opacity="0.0" stroke-dasharray="2.0,3.0" clip-path="url(#id_0)" d="M83.0 240.0L83.0 222.0L122.0 222.0C123.10457 222.0 124.0 222.89543 124.0 224.0L124.0 238.0C124.0 239.10457 123.10457 240.0 122.0 240.0Z" fill-rule="nonzero"/><path fill="#c44536" clip-path="url(#id_0)" d="M83.0 240.0L83.0 222.0L122.0 222.0C123.10457 222.0 124.0 222.89543 124.0 224.0L124.0 238.0C124.0 239.10457 123.10457 240.0 122.0 240.0Z" fill-rule="nonzero"/><path stroke="#000000" stroke-width="2.0" stroke-linecap="butt" stroke-opacity="0.0" stroke-dasharray="2.0,3.0" clip-path="url(#id_0)" d="M83.0 267.0L83.0 249.0L95.0 249.0C96.10457 249.0 97.0 249.89543 97.0 251.0L97.0 265.0C97.0 266.10458 96.10457 267.0 95.0 267.0Z" fill-rule="nonzero"/><path fill="#c44536" clip-path="url(#id_0)" d="M83.0 267.0L83.0 249.0L95.0 249.0C96.10457 249.0 97.0 249.89543 97.0 251.0L97.0 265.0C97.0 266.10458 96.10457 267.0 95.0 267.0Z" fill-rule="nonzero"/><path stroke="#000000" stroke-width="2.0" stroke-linecap="butt" stroke-opacity="0.0" stroke-dasharray="2.0,3.0" clip-path="url(#id_0)" d="M83.0 295.0L83.0 277.0L114.0 277.0C115.10457 277.0 116.0 277.89542 116.0 279.0L116.0 293.0C116.0 294.10458 115.10457 295.0 114.0 295.0Z" fill-rule="nonzero"/><path fill="#c44536" clip-path="url(#id_0)" d="M83.0 295.0L83.0 277.0L114.0 277.0C115.10457 277.0 116.0 277.89542 116.0 279.0L116.0 293.0C116.0 294.10458 115.10457 295.0 114.0 295.0Z" fill-rule="nonzero"/><path fill="#000000" d="M208.0 351.13806L210.23438 351.8568Q209.71875 353.7318 208.51562 354.6537Q207.32812 355.55994 205.48438 355.55994Q203.20312 355.55994 201.73438 353.99744Q200.26562 352.43494 200.26562 349.7318Q200.26562 346.87244 201.73438 345.2943Q203.21875 343.70056 205.625 343.70056Q207.71875 343.70056 209.03125 344.95056Q209.8125 345.68494 210.20312 347.05994L207.92188 347.6068Q207.71875 346.7162 207.0625 346.20056Q206.42188 345.68494 205.5 345.68494Q204.23438 345.68494 203.4375 346.6068Q202.64062 347.51306 202.64062 349.55994Q202.64062 351.7318 203.42188 352.6537Q204.20312 353.57556 205.45312 353.57556Q206.375 353.57556 207.03125 352.99744Q207.70312 352.4037 208.0 351.13806ZM218.10938 355.3568L218.10938 354.1068Q217.65625 354.7787 216.92188 355.1693Q216.1875 355.5443 215.35938 355.5443Q214.53125 355.5443 213.85938 355.18494Q213.20312 354.80994 212.90625 354.1537Q212.60938 353.4818 212.60938 352.30994L212.60938 347.05994L214.79688 347.05994L214.79688 350.87244Q214.79688 352.62244 214.92188 353.01306Q215.04688 353.4037 215.35938 353.63806Q215.6875 353.87244 216.17188 353.87244Q216.73438 353.87244 217.17188 353.55994Q217.625 353.24744 217.78125 352.7943Q217.95312 352.3412 217.95312 350.55994L217.95312 347.05994L220.15625 347.05994L220.15625 355.3568L218.10938 355.3568ZM222.48438 347.05994L224.51562 347.05994L224.51562 348.18494Q225.59375 346.87244 227.09375 346.87244Q227.89062 346.87244 228.46875 347.20056Q229.0625 347.5287 229.4375 348.18494Q229.98438 347.5287 230.60938 347.20056Q231.25 346.87244 231.96875 346.87244Q232.89062 346.87244 233.51562 347.24744Q234.15625 347.6068 234.46875 348.32556Q234.6875 348.8568 234.6875 350.0443L234.6875 355.3568L232.5 355.3568L232.5 350.6068Q232.5 349.37244 232.26562 349.01306Q231.96875 348.5443 231.32812 348.5443Q230.875 348.5443 230.46875 348.82556Q230.0625 349.1068 229.875 349.6537Q229.70312 350.20056 229.70312 351.37244L229.70312 355.3568L227.5 355.3568L227.5 350.80994Q227.5 349.5912 227.375 349.24744Q227.26562 348.88806 227.01562 348.7162Q226.78125 348.5443 226.35938 348.5443Q225.84375 348.5443 225.4375 348.82556Q225.03125 349.0912 224.85938 349.6068Q224.6875 350.12244 224.6875 351.32556L224.6875 355.3568L222.48438 355.3568L222.48438 347.05994ZM242.10938 355.3568L242.10938 354.1068Q241.65625 354.7787 240.92188 355.1693Q240.1875 355.5443 239.35938 355.5443Q238.53125 355.5443 237.85938 355.18494Q237.20312 354.80994 236.90625 354.1537Q236.60938 353.4818 236.60938 352.30994L236.60938 347.05994L238.79688 347.05994L238.79688 350.87244Q238.79688 352.62244 238.92188 353.01306Q239.04688 353.4037 239.35938 353.63806Q239.6875 353.87244 240.17188 353.87244Q240.73438 353.87244 241.17188 353.55994Q241.625 353.24744 241.78125 352.7943Q241.95312 352.3412 241.95312 350.55994L241.95312 347.05994L244.15625 347.05994L244.15625 355.3568L242.10938 355.3568ZM246.65625 355.3568L246.65625 343.9037L248.84375 343.9037L248.84375 355.3568L246.65625 355.3568ZM252.29688 349.5912L250.29688 349.2318Q250.64062 348.0287 251.45312 347.45056Q252.28125 346.87244 253.89062 346.87244Q255.35938 346.87244 256.07812 347.2162Q256.79688 347.55994 257.09375 348.1068Q257.39062 348.63806 257.39062 350.05994L257.35938 352.62244Q257.35938 353.7162 257.46875 354.24744Q257.57812 354.76306 257.85938 355.3568L255.6875 355.3568Q255.60938 355.13806 255.48438 354.70056Q255.42188 354.51306 255.40625 354.45056Q254.84375 354.99744 254.20312 355.2787Q253.5625 355.5443 252.82812 355.5443Q251.54688 355.5443 250.8125 354.8568Q250.07812 354.1537 250.07812 353.0912Q250.07812 352.38806 250.40625 351.8412Q250.75 351.2787 251.34375 350.99744Q251.95312 350.70056 253.09375 350.4818Q254.64062 350.18494 255.23438 349.93494L255.23438 349.7162Q255.23438 349.0912 254.92188 348.82556Q254.60938 348.5443 253.73438 348.5443Q253.15625 348.5443 252.82812 348.7787Q252.5 349.01306 252.29688 349.5912ZM255.23438 351.37244Q254.8125 351.51306 253.89062 351.7162Q252.98438 351.9037 252.70312 352.0912Q252.26562 352.38806 252.26562 352.8568Q252.26562 353.32556 252.60938 353.6693Q252.95312 353.99744 253.48438 353.99744Q254.07812 353.99744 254.625 353.6068Q255.01562 353.30994 255.14062 352.87244Q255.23438 352.5912 255.23438 351.80994L255.23438 351.37244ZM263.45312 347.05994L263.45312 348.80994L261.95312 348.80994L261.95312 352.1537Q261.95312 353.1693 262.0 353.3412Q262.04688 353.49744 262.1875 353.6068Q262.34375 353.7162 262.5625 353.7162Q262.875 353.7162 263.45312 353.51306L263.64062 355.2162Q262.875 355.5443 261.90625 355.5443Q261.3125 355.5443 260.82812 355.3412Q260.35938 355.13806 260.125 354.82556Q259.90625 354.51306 259.82812 353.9662Q259.75 353.5912 259.75 352.4193L259.75 348.80994L258.75 348.80994L258.75 347.05994L259.75 347.05994L259.75 345.4037L261.95312 344.12244L261.95312 347.05994L263.45312 347.05994ZM264.65625 345.93494L264.65625 343.9037L266.84375 343.9037L266.84375 345.93494L264.65625 345.93494ZM264.65625 355.3568L264.65625 347.05994L266.84375 347.05994L266.84375 355.3568L264.65625 355.3568ZM270.9375 355.3568L267.59375 347.05994L269.89062 347.05994L271.45312 351.2943L271.90625 352.70056Q272.09375 352.1693 272.14062 351.99744Q272.25 351.63806 272.375 351.2943L273.95312 347.05994L276.20312 347.05994L272.90625 355.3568L270.9375 355.3568ZM282.45312 352.7162L284.64062 353.07556Q284.21875 354.2787 283.3125 354.9193Q282.40625 355.5443 281.03125 355.5443Q278.875 355.5443 277.82812 354.12244Q277.01562 352.99744 277.01562 351.26306Q277.01562 349.20056 278.09375 348.0443Q279.17188 346.87244 280.8125 346.87244Q282.67188 346.87244 283.73438 348.0912Q284.8125 349.30994 284.76562 351.8412L279.26562 351.8412Q279.28125 352.80994 279.78125 353.3568Q280.29688 353.9037 281.0625 353.9037Q281.57812 353.9037 281.92188 353.62244Q282.28125 353.3412 282.45312 352.7162ZM282.57812 350.49744Q282.5625 349.5443 282.09375 349.0443Q281.625 348.5443 280.95312 348.5443Q280.23438 348.5443 279.76562 349.07556Q279.29688 349.5912 279.29688 350.49744L282.57812 350.49744ZM301.0 355.3568L298.48438 355.3568L297.48438 352.74744L292.90625 352.74744L291.95312 355.3568L289.5 355.3568L293.96875 343.9037L296.40625 343.9037L301.0 355.3568ZM296.73438 350.82556L295.15625 346.57556L293.60938 350.82556L296.73438 350.82556ZM301.48438 347.05994L303.51562 347.05994L303.51562 348.18494Q304.59375 346.87244 306.09375 346.87244Q306.89062 346.87244 307.46875 347.20056Q308.0625 347.5287 308.4375 348.18494Q308.98438 347.5287 309.60938 347.20056Q310.25 346.87244 310.96875 346.87244Q311.89062 346.87244 312.51562 347.24744Q313.15625 347.6068 313.46875 348.32556Q313.6875 348.8568 313.6875 350.0443L313.6875 355.3568L311.5 355.3568L311.5 350.6068Q311.5 349.37244 311.26562 349.01306Q310.96875 348.5443 310.32812 348.5443Q309.875 348.5443 309.46875 348.82556Q309.0625 349.1068 308.875 349.6537Q308.70312 350.20056 308.70312 351.37244L308.70312 355.3568L306.5 355.3568L306.5 350.80994Q306.5 349.5912 306.375 349.24744Q306.26562 348.88806 306.01562 348.7162Q305.78125 348.5443 305.35938 348.5443Q304.84375 348.5443 304.4375 348.82556Q304.03125 349.0912 303.85938 349.6068Q303.6875 350.12244 303.6875 351.32556L303.6875 355.3568L301.48438 355.3568L301.48438 347.05994ZM315.14062 351.0912Q315.14062 349.99744 315.67188 348.9818Q316.21875 347.95056 317.20312 347.4193Q318.20312 346.87244 319.42188 346.87244Q321.29688 346.87244 322.5 348.0912Q323.70312 349.30994 323.70312 351.18494Q323.70312 353.05994 322.48438 354.30994Q321.28125 355.5443 319.4375 355.5443Q318.29688 355.5443 317.25 355.0287Q316.21875 354.51306 315.67188 353.51306Q315.14062 352.51306 315.14062 351.0912ZM317.39062 351.20056Q317.39062 352.43494 317.96875 353.0912Q318.5625 353.74744 319.42188 353.74744Q320.28125 353.74744 320.85938 353.0912Q321.45312 352.43494 321.45312 351.18494Q321.45312 349.9662 320.85938 349.30994Q320.28125 348.6537 319.42188 348.6537Q318.5625 348.6537 317.96875 349.30994Q317.39062 349.9662 317.39062 351.20056ZM331.10938 355.3568L331.10938 354.1068Q330.65625 354.7787 329.92188 355.1693Q329.1875 355.5443 328.35938 355.5443Q327.53125 355.5443 326.85938 355.18494Q326.20312 354.80994 325.90625 354.1537Q325.60938 353.4818 325.60938 352.30994L325.60938 347.05994L327.79688 347.05994L327.79688 350.87244Q327.79688 352.62244 327.92188 353.01306Q328.04688 353.4037 328.35938 353.63806Q328.6875 353.87244 329.17188 353.87244Q329.73438 353.87244 330.17188 353.55994Q330.625 353.24744 330.78125 352.7943Q330.95312 352.3412 330.95312 350.55994L330.95312 347.05994L333.15625 347.05994L333.15625 355.3568L331.10938 355.3568ZM343.20312 355.3568L341.0 355.3568L341.0 351.12244Q341.0 349.7787 340.85938 349.38806Q340.71875 348.9818 340.40625 348.76306Q340.09375 348.5443 339.64062 348.5443Q339.07812 348.5443 338.625 348.8568Q338.17188 349.1693 338.0 349.68494Q337.82812 350.20056 337.82812 351.5912L337.82812 355.3568L335.64062 355.3568L335.64062 347.05994L337.67188 347.05994L337.67188 348.2787Q338.76562 346.87244 340.40625 346.87244Q341.14062 346.87244 341.73438 347.13806Q342.34375 347.38806 342.64062 347.7943Q342.95312 348.20056 343.07812 348.7162Q343.20312 349.2318 343.20312 350.20056L343.20312 355.3568ZM349.45312 347.05994L349.45312 348.80994L347.95312 348.80994L347.95312 352.1537Q347.95312 353.1693 348.0 353.3412Q348.04688 353.49744 348.1875 353.6068Q348.34375 353.7162 348.5625 353.7162Q348.875 353.7162 349.45312 353.51306L349.64062 355.2162Q348.875 355.5443 347.90625 355.5443Q347.3125 355.5443 346.82812 355.3412Q346.35938 355.13806 346.125 354.82556Q345.90625 354.51306 345.82812 353.9662Q345.75 353.5912 345.75 352.4193L345.75 348.80994L344.75 348.80994L344.75 347.05994L345.75 347.05994L345.75 345.4037L347.95312 344.12244L347.95312 347.05994L349.45312 347.05994ZM358.29688 358.7318L356.78125 358.7318Q355.59375 356.9193 354.96875 354.9818Q354.34375 353.0287 354.34375 351.20056Q354.34375 348.95056 355.10938 346.93494Q355.78125 345.18494 356.8125 343.70056L358.3125 343.70056Q357.25 346.07556 356.84375 347.7318Q356.4375 349.38806 356.4375 351.24744Q356.4375 352.5287 356.67188 353.87244Q356.92188 355.2162 357.32812 356.43494Q357.60938 357.2318 358.29688 358.7318ZM359.65625 345.93494L359.65625 343.9037L361.84375 343.9037L361.84375 345.93494L359.65625 345.93494ZM359.65625 355.3568L359.65625 347.05994L361.84375 347.05994L361.84375 355.3568L359.65625 355.3568ZM371.20312 355.3568L369.0 355.3568L369.0 351.12244Q369.0 349.7787 368.85938 349.38806Q368.71875 348.9818 368.40625 348.76306Q368.09375 348.5443 367.64062 348.5443Q367.07812 348.5443 366.625 348.8568Q366.17188 349.1693 366.0 349.68494Q365.82812 350.20056 365.82812 351.5912L365.82812 355.3568L363.64062 355.3568L363.64062 347.05994L365.67188 347.05994L365.67188 348.2787Q366.76562 346.87244 368.40625 346.87244Q369.14062 346.87244 369.73438 347.13806Q370.34375 347.38806 370.64062 347.7943Q370.95312 348.20056 371.07812 348.7162Q371.20312 349.2318 371.20312 350.20056L371.20312 355.3568ZM377.65625 355.3568L377.65625 343.9037L379.84375 343.9037L379.84375 355.3568L377.65625 355.3568ZM383.29688 349.5912L381.29688 349.2318Q381.64062 348.0287 382.45312 347.45056Q383.28125 346.87244 384.89062 346.87244Q386.35938 346.87244 387.07812 347.2162Q387.79688 347.55994 388.09375 348.1068Q388.39062 348.63806 388.39062 350.05994L388.35938 352.62244Q388.35938 353.7162 388.46875 354.24744Q388.57812 354.76306 388.85938 355.3568L386.6875 355.3568Q386.60938 355.13806 386.48438 354.70056Q386.42188 354.51306 386.40625 354.45056Q385.84375 354.99744 385.20312 355.2787Q384.5625 355.5443 383.82812 355.5443Q382.54688 355.5443 381.8125 354.8568Q381.07812 354.1537 381.07812 353.0912Q381.07812 352.38806 381.40625 351.8412Q381.75 351.2787 382.34375 350.99744Q382.95312 350.70056 384.09375 350.4818Q385.64062 350.18494 386.23438 349.93494L386.23438 349.7162Q386.23438 349.0912 385.92188 348.82556Q385.60938 348.5443 384.73438 348.5443Q384.15625 348.5443 383.82812 348.7787Q383.5 349.01306 383.29688 349.5912ZM386.23438 351.37244Q385.8125 351.51306 384.89062 351.7162Q383.98438 351.9037 383.70312 352.0912Q383.26562 352.38806 383.26562 352.8568Q383.26562 353.32556 383.60938 353.6693Q383.95312 353.99744 384.48438 353.99744Q385.07812 353.99744 385.625 353.6068Q386.01562 353.30994 386.14062 352.87244Q386.23438 352.5912 386.23438 351.80994L386.23438 351.37244ZM390.57812 355.3568L390.57812 343.9037L392.76562 343.9037L392.76562 349.9818L395.34375 347.05994L398.04688 347.05994L395.20312 350.0912L398.25 355.3568L395.875 355.3568L393.79688 351.62244L392.76562 352.70056L392.76562 355.3568L390.57812 355.3568ZM401.84375 343.9037L401.84375 348.1068Q402.90625 346.87244 404.375 346.87244Q405.14062 346.87244 405.75 347.1537Q406.35938 347.43494 406.65625 347.87244Q406.96875 348.30994 407.07812 348.8412Q407.20312 349.37244 407.20312 350.4818L407.20312 355.3568L405.0 355.3568L405.0 350.9662Q405.0 349.6693 404.875 349.32556Q404.75 348.9662 404.4375 348.76306Q404.125 348.5443 403.64062 348.5443Q403.09375 348.5443 402.65625 348.80994Q402.23438 349.07556 402.03125 349.62244Q401.84375 350.1537 401.84375 351.20056L401.84375 355.3568L399.64062 355.3568L399.64062 343.9037L401.84375 343.9037ZM408.875 352.9818L411.07812 352.6537Q411.21875 353.2943 411.64062 353.62244Q412.07812 353.95056 412.85938 353.95056Q413.70312 353.95056 414.14062 353.63806Q414.42188 353.4193 414.42188 353.05994Q414.42188 352.80994 414.26562 352.63806Q414.10938 352.4818 413.53125 352.3568Q410.875 351.76306 410.17188 351.2787Q409.1875 350.6068 409.1875 349.4193Q409.1875 348.3412 410.03125 347.6068Q410.89062 346.87244 412.67188 346.87244Q414.375 346.87244 415.20312 347.43494Q416.03125 347.9818 416.34375 349.05994L414.28125 349.45056Q414.14062 348.9662 413.76562 348.7162Q413.40625 348.45056 412.71875 348.45056Q411.84375 348.45056 411.46875 348.68494Q411.21875 348.8568 411.21875 349.13806Q411.21875 349.37244 411.4375 349.5287Q411.73438 349.74744 413.48438 350.1537Q415.25 350.5443 415.9375 351.12244Q416.625 351.7162 416.625 352.76306Q416.625 353.9037 415.67188 354.7318Q414.71875 355.5443 412.85938 355.5443Q411.15625 355.5443 410.17188 354.8568Q409.1875 354.1693 408.875 352.9818ZM430.09375 343.9037L429.3125 345.62244L427.53125 345.62244Q427.65625 345.7787 427.78125 346.0287Q427.90625 346.2787 427.95312 346.5287L430.09375 346.5287L429.3125 348.24744L427.95312 348.24744Q427.85938 348.80994 427.5625 349.2787Q427.26562 349.7318 426.82812 350.07556Q426.39062 350.4037 425.82812 350.6068Q425.28125 350.80994 424.67188 350.87244L428.92188 355.3568L426.15625 355.3568L422.23438 350.99744L422.23438 349.26306L423.39062 349.26306Q423.60938 349.26306 423.9375 349.2318Q424.28125 349.20056 424.60938 349.1068Q424.9375 348.99744 425.20312 348.7943Q425.48438 348.5912 425.59375 348.24744L421.84375 348.24744L422.625 346.5287L425.57812 346.5287Q425.48438 346.2162 425.23438 346.0443Q424.98438 345.8568 424.64062 345.76306Q424.29688 345.6693 423.85938 345.6537Q423.4375 345.62244 422.96875 345.62244L421.84375 345.62244L422.625 343.9037L430.09375 343.9037ZM431.04688 358.7318Q431.6875 357.3412 431.95312 356.5912Q432.21875 355.8568 432.4375 354.88806Q432.67188 353.9037 432.78125 353.0443Q432.89062 352.1693 432.89062 351.24744Q432.89062 349.38806 432.48438 347.7318Q432.09375 346.07556 431.03125 343.70056L432.51562 343.70056Q433.70312 345.38806 434.34375 347.2787Q435.0 349.1537 435.0 351.0912Q435.0 352.7162 434.48438 354.5912Q433.90625 356.68494 432.5625 358.7318L431.04688 358.7318Z" fill-rule="nonzero"/><path fill="#000000" d="M28.762102 226.47314L17.308977 226.47314L17.308977 218.6294L19.246477 218.6294L19.246477 224.16064L21.949602 224.16064L21.949602 219.3794L23.887102 219.3794L23.887102 224.16064L28.762102 224.16064L28.762102 226.47314ZM28.762102 211.05127L27.512102 211.05127Q28.183977 211.5044 28.574602 212.23877Q28.949602 212.97314 28.949602 213.80127Q28.949602 214.6294 28.590227 215.30127Q28.215227 215.95752 27.558977 216.2544Q26.887102 216.55127 25.715227 216.55127L20.465227 216.55127L20.465227 214.36377L24.277727 214.36377Q26.027727 214.36377 26.418352 214.23877Q26.808977 214.11377 27.043352 213.80127Q27.277727 213.47314 27.277727 212.98877Q27.277727 212.42627 26.965227 211.98877Q26.652727 211.53564 26.199602 211.3794Q25.746477 211.20752 23.965227 211.20752L20.465227 211.20752L20.465227 209.0044L28.762102 209.0044L28.762102 211.05127ZM28.762102 198.95752L28.762102 201.16064L24.527727 201.16064Q23.183977 201.16064 22.793352 201.30127Q22.387102 201.4419 22.168352 201.7544Q21.949602 202.0669 21.949602 202.52002Q21.949602 203.08252 22.262102 203.53564Q22.574602 203.98877 23.090227 204.16064Q23.605852 204.33252 24.996477 204.33252L28.762102 204.33252L28.762102 206.52002L20.465227 206.52002L20.465227 204.48877L21.683977 204.48877Q20.277727 203.39502 20.277727 201.7544Q20.277727 201.02002 20.543352 200.42627Q20.793352 199.8169 21.199602 199.52002Q21.605852 199.20752 22.121477 199.08252Q22.637102 198.95752 23.605852 198.95752L28.762102 198.95752ZM28.762102 188.89502L28.762102 190.9419L27.543352 190.9419Q28.246477 191.4419 28.605852 192.14502Q28.949602 192.83252 28.949602 193.53564Q28.949602 194.95752 27.793352 195.98877Q26.637102 197.0044 24.574602 197.0044Q22.465227 197.0044 21.371477 196.02002Q20.277727 195.02002 20.277727 193.5044Q20.277727 192.11377 21.433977 191.09814L17.308977 191.09814L17.308977 188.89502L28.762102 188.89502ZM24.433977 194.7544Q25.762102 194.7544 26.355852 194.39502Q27.215227 193.86377 27.215227 192.91064Q27.215227 192.14502 26.574602 191.61377Q25.918352 191.08252 24.637102 191.08252Q23.215227 191.08252 22.590227 191.59814Q21.949602 192.11377 21.949602 192.92627Q21.949602 193.70752 22.574602 194.23877Q23.199602 194.7544 24.433977 194.7544ZM19.340227 186.5044L17.308977 186.5044L17.308977 184.3169L19.340227 184.3169L19.340227 186.5044ZM28.762102 186.5044L20.465227 186.5044L20.465227 184.3169L28.762102 184.3169L28.762102 186.5044ZM28.762102 174.95752L28.762102 177.16064L24.527727 177.16064Q23.183977 177.16064 22.793352 177.30127Q22.387102 177.4419 22.168352 177.7544Q21.949602 178.0669 21.949602 178.52002Q21.949602 179.08252 22.262102 179.53564Q22.574602 179.98877 23.090227 180.16064Q23.605852 180.33252 24.996477 180.33252L28.762102 180.33252L28.762102 182.52002L20.465227 182.52002L20.465227 180.48877L21.683977 180.48877Q20.277727 179.39502 20.277727 177.7544Q20.277727 177.02002 20.543352 176.42627Q20.793352 175.8169 21.199602 175.52002Q21.605852 175.20752 22.121477 175.08252Q22.637102 174.95752 23.605852 174.95752L28.762102 174.95752ZM28.762102 158.16064L28.762102 160.67627L26.152727 161.67627L26.152727 166.2544L28.762102 167.20752L28.762102 169.66064L17.308977 165.1919L17.308977 162.7544L28.762102 158.16064ZM24.230852 162.42627L19.980852 164.0044L24.230852 165.55127L24.230852 162.42627ZM29.308977 157.70752L29.621477 155.20752Q30.058977 155.14502 30.215227 154.91064Q30.449602 154.59814 30.449602 153.92627Q30.449602 153.0669 30.199602 152.64502Q30.027727 152.34814 29.637102 152.20752Q29.371477 152.09814 28.621477 152.09814L27.418352 152.09814Q28.762102 153.08252 28.762102 154.58252Q28.762102 156.2544 27.340227 157.23877Q26.230852 158.0044 24.558977 158.0044Q22.480852 158.0044 21.387102 157.0044Q20.277727 155.98877 20.277727 154.5044Q20.277727 152.95752 21.621477 151.95752L20.465227 151.95752L20.465227 149.91064L27.902727 149.91064Q29.387102 149.91064 30.105852 150.16064Q30.840227 150.39502 31.246477 150.83252Q31.668352 151.27002 31.902727 152.0044Q32.1371 152.72314 32.1371 153.84814Q32.1371 155.95752 31.402727 156.84814Q30.683977 157.72314 29.574602 157.72314Q29.465227 157.72314 29.308977 157.70752ZM24.433977 155.7544Q25.762102 155.7544 26.371477 155.23877Q26.980852 154.72314 26.980852 153.97314Q26.980852 153.17627 26.355852 152.6294Q25.730852 152.0669 24.496477 152.0669Q23.199602 152.0669 22.574602 152.59814Q21.949602 153.1294 21.949602 153.9419Q21.949602 154.72314 22.574602 155.23877Q23.183977 155.7544 24.433977 155.7544ZM26.121477 142.70752L26.480852 140.52002Q27.683977 140.9419 28.324602 141.84814Q28.949602 142.7544 28.949602 144.1294Q28.949602 146.28564 27.527727 147.33252Q26.402727 148.14502 24.668352 148.14502Q22.605852 148.14502 21.449602 147.0669Q20.277727 145.98877 20.277727 144.34814Q20.277727 142.48877 21.496477 141.42627Q22.715227 140.34814 25.246477 140.39502L25.246477 145.89502Q26.215227 145.8794 26.762102 145.3794Q27.308977 144.86377 27.308977 144.09814Q27.308977 143.58252 27.027727 143.23877Q26.746477 142.8794 26.121477 142.70752ZM23.902727 142.58252Q22.949602 142.59814 22.449602 143.0669Q21.949602 143.53564 21.949602 144.20752Q21.949602 144.92627 22.480852 145.39502Q22.996477 145.86377 23.902727 145.86377L23.902727 142.58252ZM28.762102 130.95752L28.762102 133.16064L24.527727 133.16064Q23.183977 133.16064 22.793352 133.30127Q22.387102 133.4419 22.168352 133.7544Q21.949602 134.0669 21.949602 134.52002Q21.949602 135.08252 22.262102 135.53564Q22.574602 135.98877 23.090227 136.16064Q23.605852 136.33252 24.996477 136.33252L28.762102 136.33252L28.762102 138.52002L20.465227 138.52002L20.465227 136.48877L21.683977 136.48877Q20.277727 135.39502 20.277727 133.7544Q20.277727 133.02002 20.543352 132.42627Q20.793352 131.8169 21.199602 131.52002Q21.605852 131.20752 22.121477 131.08252Q22.637102 130.95752 23.605852 130.95752L28.762102 130.95752ZM22.918352 121.27001L23.308977 123.44189Q22.652727 123.55126 22.324602 123.94189Q21.996477 124.31689 21.996477 124.94189Q21.996477 125.75439 22.574602 126.25439Q23.137102 126.73876 24.465227 126.73876Q25.933977 126.73876 26.543352 126.23876Q27.152727 125.73876 27.152727 124.91064Q27.152727 124.28564 26.808977 123.89501Q26.449602 123.48876 25.574602 123.31689L25.949602 121.16064Q27.433977 121.50439 28.199602 122.45751Q28.949602 123.41064 28.949602 125.00439Q28.949602 126.83251 27.808977 127.91064Q26.652727 128.98877 24.621477 128.98877Q22.558977 128.98877 21.418352 127.91064Q20.277727 126.81689 20.277727 124.97314Q20.277727 123.45751 20.933977 122.56689Q21.574602 121.66064 22.918352 121.27001ZM20.465227 120.55126L20.465227 118.20751L26.355852 116.22314L20.465227 114.28564L20.465227 112.02001L28.449602 114.94189L29.902727 115.47314Q30.621477 115.75439 30.996477 116.02001Q31.387102 116.28564 31.621477 116.62939Q31.871477 116.95751 31.996477 117.45751Q32.1371 117.95751 32.1371 118.58251Q32.1371 119.20751 31.996477 119.81689L30.277727 120.02001Q30.387102 119.50439 30.387102 119.08251Q30.387102 118.31689 29.933977 117.95751Q29.480852 117.58251 28.793352 117.39501L20.465227 120.55126Z" fill-rule="nonzero"/><path fill="#000000" d="M60.21875 33.539402L62.859375 33.539402Q63.765625 33.539402 64.234375 33.680027Q64.859375 33.851902 65.296875 34.336277Q65.75 34.805027 65.984375 35.492527Q66.21875 36.180027 66.21875 37.180027Q66.21875 38.070652 66.0 38.711277Q65.734375 39.492527 65.234375 39.976902Q64.859375 40.336277 64.21875 40.539402Q63.75 40.695652 62.9375 40.695652L60.21875 40.695652L60.21875 33.539402ZM61.671875 34.742527L61.671875 39.492527L62.75 39.492527Q63.359375 39.492527 63.625 39.414402Q63.96875 39.336277 64.203125 39.133152Q64.4375 38.914402 64.578125 38.430027Q64.734375 37.945652 64.734375 37.117527Q64.734375 36.289402 64.578125 35.851902Q64.4375 35.398777 64.171875 35.148777Q63.90625 34.898777 63.5 34.820652Q63.203125 34.742527 62.3125 34.742527L61.671875 34.742527ZM66.859375 38.367527L68.265625 38.226902Q68.390625 38.930027 68.78125 39.273777Q69.171875 39.601902 69.828125 39.601902Q70.53125 39.601902 70.875 39.305027Q71.234375 39.008152 71.234375 38.617527Q71.234375 38.367527 71.078125 38.195652Q70.9375 38.008152 70.5625 37.867527Q70.3125 37.789402 69.40625 37.555027Q68.25 37.273777 67.78125 36.851902Q67.125 36.258152 67.125 35.414402Q67.125 34.867527 67.421875 34.398777Q67.734375 33.914402 68.3125 33.664402Q68.90625 33.414402 69.734375 33.414402Q71.078125 33.414402 71.75 34.008152Q72.4375 34.601902 72.484375 35.586277L71.03125 35.648777Q70.9375 35.101902 70.625 34.867527Q70.328125 34.617527 69.71875 34.617527Q69.09375 34.617527 68.734375 34.867527Q68.5 35.039402 68.5 35.320652Q68.5 35.570652 68.71875 35.742527Q68.984375 35.976902 70.03125 36.226902Q71.09375 36.476902 71.59375 36.742527Q72.109375 37.008152 72.390625 37.476902Q72.6875 37.930027 72.6875 38.617527Q72.6875 39.226902 72.34375 39.773777Q72.0 40.305027 71.375 40.570652Q70.75 40.820652 69.8125 40.820652Q68.453125 40.820652 67.71875 40.195652Q67.0 39.570652 66.859375 38.367527ZM75.84375 40.695652L75.84375 34.742527L73.71875 34.742527L73.71875 33.539402L79.40625 33.539402L79.40625 34.742527L77.28125 34.742527L77.28125 40.695652L75.84375 40.695652Z" fill-rule="nonzero"/><path fill="#000000" d="M50.859375 65.990715L52.265625 65.85009Q52.390625 66.553215 52.78125 66.896965Q53.171875 67.22509 53.828125 67.22509Q54.53125 67.22509 54.875 66.928215Q55.234375 66.63134 55.234375 66.240715Q55.234375 65.990715 55.078125 65.81884Q54.9375 65.63134 54.5625 65.490715Q54.3125 65.41259 53.40625 65.178215Q52.25 64.896965 51.78125 64.47509Q51.125 63.88134 51.125 63.03759Q51.125 62.490715 51.421875 62.021965Q51.734375 61.53759 52.3125 61.28759Q52.90625 61.03759 53.734375 61.03759Q55.078125 61.03759 55.75 61.63134Q56.4375 62.22509 56.484375 63.209465L55.03125 63.271965Q54.9375 62.72509 54.625 62.490715Q54.328125 62.240715 53.71875 62.240715Q53.09375 62.240715 52.734375 62.490715Q52.5 62.66259 52.5 62.94384Q52.5 63.19384 52.71875 63.365715Q52.984375 63.60009 54.03125 63.85009Q55.09375 64.10009 55.59375 64.365715Q56.109375 64.63134 56.390625 65.10009Q56.6875 65.553215 56.6875 66.240715Q56.6875 66.85009 56.34375 67.396965Q56.0 67.928215 55.375 68.19384Q54.75 68.44384 53.8125 68.44384Q52.453125 68.44384 51.71875 67.81884Q51.0 67.19384 50.859375 65.990715ZM58.234375 68.31884L58.234375 61.16259L63.53125 61.16259L63.53125 62.365715L59.671875 62.365715L59.671875 63.959465L63.265625 63.959465L63.265625 65.16259L59.671875 65.16259L59.671875 67.115715L63.671875 67.115715L63.671875 68.31884L58.234375 68.31884ZM65.234375 68.31884L65.234375 61.16259L68.28125 61.16259Q69.421875 61.16259 69.9375 61.365715Q70.46875 61.553215 70.78125 62.053215Q71.09375 62.53759 71.09375 63.16259Q71.09375 63.97509 70.609375 64.50634Q70.140625 65.021965 69.203125 65.16259Q69.671875 65.428215 69.96875 65.75634Q70.28125 66.084465 70.796875 66.928215L71.671875 68.31884L69.9375 68.31884L68.890625 66.75634Q68.34375 65.928215 68.125 65.709465Q67.921875 65.490715 67.6875 65.41259Q67.46875 65.334465 66.96875 65.334465L66.671875 65.334465L66.671875 68.31884L65.234375 68.31884ZM66.671875 64.19384L67.75 64.19384Q68.78125 64.19384 69.046875 64.10009Q69.3125 64.00634 69.453125 63.803215Q69.59375 63.584465 69.59375 63.25634Q69.59375 62.896965 69.40625 62.678215Q69.21875 62.459465 68.859375 62.396965Q68.6875 62.365715 67.8125 62.365715L66.671875 62.365715L66.671875 64.19384ZM72.234375 61.16259L75.09375 61.16259Q75.9375 61.16259 76.359375 61.240715Q76.78125 61.303215 77.109375 61.53759Q77.4375 61.75634 77.65625 62.13134Q77.875 62.490715 77.875 62.959465Q77.875 63.459465 77.59375 63.88134Q77.328125 64.303215 76.875 64.521965Q77.53125 64.709465 77.875 65.16259Q78.234375 65.615715 78.234375 66.240715Q78.234375 66.72509 78.0 67.19384Q77.78125 67.646965 77.375 67.928215Q76.984375 68.209465 76.40625 68.271965Q76.046875 68.303215 74.671875 68.31884L72.234375 68.31884L72.234375 61.16259ZM73.671875 62.35009L73.671875 64.00634L74.625 64.00634Q75.46875 64.00634 75.671875 63.97509Q76.046875 63.94384 76.25 63.72509Q76.46875 63.50634 76.46875 63.16259Q76.46875 62.834465 76.28125 62.63134Q76.109375 62.41259 75.75 62.38134Q75.53125 62.35009 74.515625 62.35009L73.671875 62.35009ZM73.671875 65.19384L73.671875 67.115715L75.015625 67.115715Q75.796875 67.115715 76.0 67.06884Q76.328125 67.00634 76.53125 66.78759Q76.734375 66.553215 76.734375 66.178215Q76.734375 65.85009 76.578125 65.63134Q76.421875 65.396965 76.125 65.303215Q75.828125 65.19384 74.84375 65.19384L73.671875 65.19384Z" fill-rule="nonzero"/><path fill="#000000" d="M51.234375 88.78578L54.09375 88.78578Q54.9375 88.78578 55.359375 88.86391Q55.78125 88.92641 56.109375 89.16078Q56.4375 89.37953 56.65625 89.75453Q56.875 90.11391 56.875 90.58266Q56.875 91.08266 56.59375 91.50453Q56.328125 91.92641 55.875 92.14516Q56.53125 92.33266 56.875 92.78578Q57.234375 93.23891 57.234375 93.86391Q57.234375 94.34828 57.0 94.81703Q56.78125 95.27016 56.375 95.55141Q55.984375 95.83266 55.40625 95.89516Q55.046875 95.92641 53.671875 95.94203L51.234375 95.94203L51.234375 88.78578ZM52.671875 89.97328L52.671875 91.62953L53.625 91.62953Q54.46875 91.62953 54.671875 91.59828Q55.046875 91.56703 55.25 91.34828Q55.46875 91.12953 55.46875 90.78578Q55.46875 90.45766 55.28125 90.25453Q55.109375 90.03578 54.75 90.00453Q54.53125 89.97328 53.515625 89.97328L52.671875 89.97328ZM52.671875 92.81703L52.671875 94.73891L54.015625 94.73891Q54.796875 94.73891 55.0 94.69203Q55.328125 94.62953 55.53125 94.41078Q55.734375 94.17641 55.734375 93.80141Q55.734375 93.47328 55.578125 93.25453Q55.421875 93.02016 55.125 92.92641Q54.828125 92.81703 53.84375 92.81703L52.671875 92.81703ZM58.234375 95.94203L58.234375 88.78578L61.28125 88.78578Q62.421875 88.78578 62.9375 88.98891Q63.46875 89.17641 63.78125 89.67641Q64.09375 90.16078 64.09375 90.78578Q64.09375 91.59828 63.609375 92.12953Q63.140625 92.64516 62.203125 92.78578Q62.671875 93.05141 62.96875 93.37953Q63.28125 93.70766 63.796875 94.55141L64.671875 95.94203L62.9375 95.94203L61.890625 94.37953Q61.34375 93.55141 61.125 93.33266Q60.921875 93.11391 60.6875 93.03578Q60.46875 92.95766 59.96875 92.95766L59.671875 92.95766L59.671875 95.94203L58.234375 95.94203ZM59.671875 91.81703L60.75 91.81703Q61.78125 91.81703 62.046875 91.72328Q62.3125 91.62953 62.453125 91.42641Q62.59375 91.20766 62.59375 90.87953Q62.59375 90.52016 62.40625 90.30141Q62.21875 90.08266 61.859375 90.02016Q61.6875 89.98891 60.8125 89.98891L59.671875 89.98891L59.671875 91.81703ZM65.25 95.94203L65.25 88.78578L66.65625 88.78578L69.578125 93.56703L69.578125 88.78578L70.921875 88.78578L70.921875 95.94203L69.46875 95.94203L66.578125 91.27016L66.578125 95.94203L65.25 95.94203ZM71.859375 93.61391L73.265625 93.47328Q73.390625 94.17641 73.78125 94.52016Q74.171875 94.84828 74.828125 94.84828Q75.53125 94.84828 75.875 94.55141Q76.234375 94.25453 76.234375 93.86391Q76.234375 93.61391 76.078125 93.44203Q75.9375 93.25453 75.5625 93.11391Q75.3125 93.03578 74.40625 92.80141Q73.25 92.52016 72.78125 92.09828Q72.125 91.50453 72.125 90.66078Q72.125 90.11391 72.421875 89.64516Q72.734375 89.16078 73.3125 88.91078Q73.90625 88.66078 74.734375 88.66078Q76.078125 88.66078 76.75 89.25453Q77.4375 89.84828 77.484375 90.83266L76.03125 90.89516Q75.9375 90.34828 75.625 90.11391Q75.328125 89.86391 74.71875 89.86391Q74.09375 89.86391 73.734375 90.11391Q73.5 90.28578 73.5 90.56703Q73.5 90.81703 73.71875 90.98891Q73.984375 91.22328 75.03125 91.47328Q76.09375 91.72328 76.59375 91.98891Q77.109375 92.25453 77.390625 92.72328Q77.6875 93.17641 77.6875 93.86391Q77.6875 94.47328 77.34375 95.02016Q77.0 95.55141 76.375 95.81703Q75.75 96.06703 74.8125 96.06703Q73.453125 96.06703 72.71875 95.44203Q72.0 94.81703 71.859375 93.61391Z" fill-rule="nonzero"/><path fill="#000000" d="M46.109375 123.565216L46.109375 120.54959L43.484375 116.408966L45.1875 116.408966L46.859375 119.23709L48.515625 116.408966L50.1875 116.408966L47.546875 120.565216L47.546875 123.565216L46.109375 123.565216ZM51.234375 123.565216L51.234375 116.408966L56.140625 116.408966L56.140625 117.61209L52.6875 117.61209L52.6875 119.315216L55.671875 119.315216L55.671875 120.51834L52.6875 120.51834L52.6875 123.565216L51.234375 123.565216ZM57.234375 123.565216L57.234375 116.408966L60.28125 116.408966Q61.421875 116.408966 61.9375 116.61209Q62.46875 116.79959 62.78125 117.29959Q63.09375 117.783966 63.09375 118.408966Q63.09375 119.221466 62.609375 119.752716Q62.140625 120.26834 61.203125 120.408966Q61.671875 120.67459 61.96875 121.002716Q62.28125 121.33084 62.796875 122.17459L63.671875 123.565216L61.9375 123.565216L60.890625 122.002716Q60.34375 121.17459 60.125 120.95584Q59.921875 120.73709 59.6875 120.658966Q59.46875 120.58084 58.96875 120.58084L58.671875 120.58084L58.671875 123.565216L57.234375 123.565216ZM58.671875 119.440216L59.75 119.440216Q60.78125 119.440216 61.046875 119.346466Q61.3125 119.252716 61.453125 119.04959Q61.59375 118.83084 61.59375 118.502716Q61.59375 118.14334 61.40625 117.92459Q61.21875 117.70584 60.859375 117.64334Q60.6875 117.61209 59.8125 117.61209L58.671875 117.61209L58.671875 119.440216ZM63.859375 121.23709L65.265625 121.096466Q65.390625 121.79959 65.78125 122.14334Q66.171875 122.471466 66.828125 122.471466Q67.53125 122.471466 67.875 122.17459Q68.234375 121.877716 68.234375 121.48709Q68.234375 121.23709 68.078125 121.065216Q67.9375 120.877716 67.5625 120.73709Q67.3125 120.658966 66.40625 120.42459Q65.25 120.14334 64.78125 119.721466Q64.125 119.127716 64.125 118.283966Q64.125 117.73709 64.421875 117.26834Q64.734375 116.783966 65.3125 116.533966Q65.90625 116.283966 66.734375 116.283966Q68.078125 116.283966 68.75 116.877716Q69.4375 117.471466 69.484375 118.45584L68.03125 118.51834Q67.9375 117.971466 67.625 117.73709Q67.328125 117.48709 66.71875 117.48709Q66.09375 117.48709 65.734375 117.73709Q65.5 117.908966 65.5 118.190216Q65.5 118.440216 65.71875 118.61209Q65.984375 118.846466 67.03125 119.096466Q68.09375 119.346466 68.59375 119.61209Q69.109375 119.877716 69.390625 120.346466Q69.6875 120.79959 69.6875 121.48709Q69.6875 122.096466 69.34375 122.64334Q69.0 123.17459 68.375 123.440216Q67.75 123.690216 66.8125 123.690216Q65.453125 123.690216 64.71875 123.065216Q64.0 122.440216 63.859375 121.23709ZM74.5625 120.940216L74.5625 119.721466L77.671875 119.721466L77.671875 122.58084Q77.21875 123.01834 76.359375 123.36209Q75.5 123.690216 74.609375 123.690216Q73.484375 123.690216 72.640625 123.221466Q71.8125 122.73709 71.390625 121.86209Q70.984375 120.98709 70.984375 119.95584Q70.984375 118.846466 71.453125 117.98709Q71.921875 117.11209 72.8125 116.64334Q73.515625 116.283966 74.53125 116.283966Q75.859375 116.283966 76.609375 116.846466Q77.359375 117.408966 77.578125 118.39334L76.140625 118.658966Q76.0 118.127716 75.578125 117.83084Q75.15625 117.51834 74.53125 117.51834Q73.59375 117.51834 73.03125 118.127716Q72.46875 118.721466 72.46875 119.908966Q72.46875 121.17459 73.03125 121.815216Q73.59375 122.45584 74.515625 122.45584Q74.96875 122.45584 75.421875 122.283966Q75.890625 122.096466 76.21875 121.846466L76.21875 120.940216L74.5625 120.940216Z" fill-rule="nonzero"/><path fill="#000000" d="M56.6875 151.1884L55.109375 151.1884L54.484375 149.5634L51.625 149.5634L51.03125 151.1884L49.5 151.1884L52.28125 144.03215L53.8125 144.03215L56.6875 151.1884ZM54.015625 148.36028L53.03125 145.70403L52.0625 148.36028L54.015625 148.36028ZM57.1875 151.1884L57.1875 144.03215L58.625 144.03215L58.625 151.1884L57.1875 151.1884ZM64.8125 148.5634L66.203125 149.0009Q65.890625 150.17278 65.140625 150.7509Q64.390625 151.3134 63.234375 151.3134Q61.8125 151.3134 60.890625 150.34465Q59.96875 149.36028 59.96875 147.67278Q59.96875 145.89153 60.890625 144.90715Q61.8125 143.90715 63.328125 143.90715Q64.640625 143.90715 65.453125 144.6884Q65.953125 145.14153 66.1875 146.0009L64.765625 146.34465Q64.625 145.78215 64.21875 145.46965Q63.828125 145.14153 63.25 145.14153Q62.453125 145.14153 61.953125 145.71965Q61.46875 146.28215 61.46875 147.5634Q61.46875 148.92278 61.953125 149.5009Q62.4375 150.07903 63.21875 150.07903Q63.796875 150.07903 64.203125 149.71965Q64.625 149.34465 64.8125 148.5634ZM68.84375 151.1884L68.84375 145.23528L66.71875 145.23528L66.71875 144.03215L72.40625 144.03215L72.40625 145.23528L70.28125 145.23528L70.28125 151.1884L68.84375 151.1884ZM72.234375 151.1884L72.234375 144.03215L77.53125 144.03215L77.53125 145.23528L73.671875 145.23528L73.671875 146.82903L77.265625 146.82903L77.265625 148.03215L73.671875 148.03215L73.671875 149.98528L77.671875 149.98528L77.671875 151.1884L72.234375 151.1884Z" fill-rule="nonzero"/><path fill="#000000" d="M59.8125 176.1866L61.203125 176.6241Q60.890625 177.79597 60.140625 178.3741Q59.390625 178.9366 58.234375 178.9366Q56.8125 178.9366 55.890625 177.96785Q54.96875 176.98347 54.96875 175.29597Q54.96875 173.51472 55.890625 172.53035Q56.8125 171.53035 58.328125 171.53035Q59.640625 171.53035 60.453125 172.3116Q60.953125 172.76472 61.1875 173.6241L59.765625 173.96785Q59.625 173.40535 59.21875 173.09285Q58.828125 172.76472 58.25 172.76472Q57.453125 172.76472 56.953125 173.34285Q56.46875 173.90535 56.46875 175.1866Q56.46875 176.54597 56.953125 177.1241Q57.4375 177.70222 58.21875 177.70222Q58.796875 177.70222 59.203125 177.34285Q59.625 176.96785 59.8125 176.1866ZM61.859375 176.48347L63.265625 176.34285Q63.390625 177.04597 63.78125 177.38972Q64.171875 177.71785 64.828125 177.71785Q65.53125 177.71785 65.875 177.42097Q66.234375 177.1241 66.234375 176.73347Q66.234375 176.48347 66.078125 176.3116Q65.9375 176.1241 65.5625 175.98347Q65.3125 175.90535 64.40625 175.67097Q63.25 175.38972 62.78125 174.96785Q62.125 174.3741 62.125 173.53035Q62.125 172.98347 62.421875 172.51472Q62.734375 172.03035 63.3125 171.78035Q63.90625 171.53035 64.734375 171.53035Q66.078125 171.53035 66.75 172.1241Q67.4375 172.71785 67.484375 173.70222L66.03125 173.76472Q65.9375 173.21785 65.625 172.98347Q65.328125 172.73347 64.71875 172.73347Q64.09375 172.73347 63.734375 172.98347Q63.5 173.15535 63.5 173.4366Q63.5 173.6866 63.71875 173.85847Q63.984375 174.09285 65.03125 174.34285Q66.09375 174.59285 66.59375 174.85847Q67.109375 175.1241 67.390625 175.59285Q67.6875 176.04597 67.6875 176.73347Q67.6875 177.34285 67.34375 177.88972Q67.0 178.42097 66.375 178.6866Q65.75 178.9366 64.8125 178.9366Q63.453125 178.9366 62.71875 178.3116Q62.0 177.6866 61.859375 176.48347ZM69.1875 178.8116L69.1875 171.65535L70.625 171.65535L70.625 178.8116L69.1875 178.8116ZM72.234375 178.8116L72.234375 171.65535L75.28125 171.65535Q76.421875 171.65535 76.9375 171.85847Q77.46875 172.04597 77.78125 172.54597Q78.09375 173.03035 78.09375 173.65535Q78.09375 174.46785 77.609375 174.9991Q77.140625 175.51472 76.203125 175.65535Q76.671875 175.92097 76.96875 176.2491Q77.28125 176.57722 77.796875 177.42097L78.671875 178.8116L76.9375 178.8116L75.890625 177.2491Q75.34375 176.42097 75.125 176.20222Q74.921875 175.98347 74.6875 175.90535Q74.46875 175.82722 73.96875 175.82722L73.671875 175.82722L73.671875 178.8116L72.234375 178.8116ZM73.671875 174.6866L74.75 174.6866Q75.78125 174.6866 76.046875 174.59285Q76.3125 174.4991 76.453125 174.29597Q76.59375 174.07722 76.59375 173.7491Q76.59375 173.38972 76.40625 173.17097Q76.21875 172.95222 75.859375 172.88972Q75.6875 172.85847 74.8125 172.85847L73.671875 172.85847L73.671875 174.6866Z" fill-rule="nonzero"/><path fill="#000000" d="M54.1875 206.43478L54.1875 199.27853L55.625 199.27853L55.625 206.43478L54.1875 206.43478ZM56.859375 204.10666L58.265625 203.96603Q58.390625 204.66916 58.78125 205.01291Q59.171875 205.34103 59.828125 205.34103Q60.53125 205.34103 60.875 205.04416Q61.234375 204.74728 61.234375 204.35666Q61.234375 204.10666 61.078125 203.93478Q60.9375 203.74728 60.5625 203.60666Q60.3125 203.52853 59.40625 203.29416Q58.25 203.01291 57.78125 202.59103Q57.125 201.99728 57.125 201.15353Q57.125 200.60666 57.421875 200.13791Q57.734375 199.65353 58.3125 199.40353Q58.90625 199.15353 59.734375 199.15353Q61.078125 199.15353 61.75 199.74728Q62.4375 200.34103 62.484375 201.32541L61.03125 201.38791Q60.9375 200.84103 60.625 200.60666Q60.328125 200.35666 59.71875 200.35666Q59.09375 200.35666 58.734375 200.60666Q58.5 200.77853 58.5 201.05978Q58.5 201.30978 58.71875 201.48166Q58.984375 201.71603 60.03125 201.96603Q61.09375 202.21603 61.59375 202.48166Q62.109375 202.74728 62.390625 203.21603Q62.6875 203.66916 62.6875 204.35666Q62.6875 204.96603 62.34375 205.51291Q62.0 206.04416 61.375 206.30978Q60.75 206.55978 59.8125 206.55978Q58.453125 206.55978 57.71875 205.93478Q57.0 205.30978 56.859375 204.10666ZM64.234375 206.43478L64.234375 199.27853L67.28125 199.27853Q68.421875 199.27853 68.9375 199.48166Q69.46875 199.66916 69.78125 200.16916Q70.09375 200.65353 70.09375 201.27853Q70.09375 202.09103 69.609375 202.62228Q69.140625 203.13791 68.203125 203.27853Q68.671875 203.54416 68.96875 203.87228Q69.28125 204.20041 69.796875 205.04416L70.671875 206.43478L68.9375 206.43478L67.890625 204.87228Q67.34375 204.04416 67.125 203.82541Q66.921875 203.60666 66.6875 203.52853Q66.46875 203.45041 65.96875 203.45041L65.671875 203.45041L65.671875 206.43478L64.234375 206.43478ZM65.671875 202.30978L66.75 202.30978Q67.78125 202.30978 68.046875 202.21603Q68.3125 202.12228 68.453125 201.91916Q68.59375 201.70041 68.59375 201.37228Q68.59375 201.01291 68.40625 200.79416Q68.21875 200.57541 67.859375 200.51291Q67.6875 200.48166 66.8125 200.48166L65.671875 200.48166L65.671875 202.30978ZM70.9375 202.90353Q70.9375 201.80978 71.265625 201.05978Q71.5 200.51291 71.921875 200.09103Q72.34375 199.65353 72.859375 199.43478Q73.515625 199.15353 74.390625 199.15353Q75.984375 199.15353 76.921875 200.13791Q77.875 201.12228 77.875 202.87228Q77.875 204.59103 76.9375 205.57541Q76.0 206.55978 74.421875 206.55978Q72.8125 206.55978 71.875 205.59103Q70.9375 204.60666 70.9375 202.90353ZM72.421875 202.85666Q72.421875 204.05978 72.984375 204.70041Q73.546875 205.32541 74.40625 205.32541Q75.28125 205.32541 75.828125 204.70041Q76.390625 204.07541 76.390625 202.82541Q76.390625 201.60666 75.84375 200.99728Q75.3125 200.38791 74.40625 200.38791Q73.515625 200.38791 72.96875 201.01291Q72.421875 201.62228 72.421875 202.85666Z" fill-rule="nonzero"/><path fill="#000000" d="M49.203125 234.05797L49.203125 226.90172L51.375 226.90172L52.671875 231.77672L53.953125 226.90172L56.125 226.90172L56.125 234.05797L54.78125 234.05797L54.78125 228.41734L53.359375 234.05797L51.96875 234.05797L50.546875 228.41734L50.546875 234.05797L49.203125 234.05797ZM58.234375 234.05797L58.234375 226.90172L59.671875 226.90172L59.671875 229.71422L62.515625 229.71422L62.515625 226.90172L63.953125 226.90172L63.953125 234.05797L62.515625 234.05797L62.515625 230.93297L59.671875 230.93297L59.671875 234.05797L58.234375 234.05797ZM65.234375 234.05797L65.234375 226.90172L68.28125 226.90172Q69.421875 226.90172 69.9375 227.10484Q70.46875 227.29234 70.78125 227.79234Q71.09375 228.27672 71.09375 228.90172Q71.09375 229.71422 70.609375 230.24547Q70.140625 230.7611 69.203125 230.90172Q69.671875 231.16734 69.96875 231.49547Q70.28125 231.8236 70.796875 232.66734L71.671875 234.05797L69.9375 234.05797L68.890625 232.49547Q68.34375 231.66734 68.125 231.4486Q67.921875 231.22984 67.6875 231.15172Q67.46875 231.0736 66.96875 231.0736L66.671875 231.0736L66.671875 234.05797L65.234375 234.05797ZM66.671875 229.93297L67.75 229.93297Q68.78125 229.93297 69.046875 229.83922Q69.3125 229.74547 69.453125 229.54234Q69.59375 229.3236 69.59375 228.99547Q69.59375 228.6361 69.40625 228.41734Q69.21875 228.1986 68.859375 228.1361Q68.6875 228.10484 67.8125 228.10484L66.671875 228.10484L66.671875 229.93297ZM72.21875 226.90172L74.859375 226.90172Q75.765625 226.90172 76.234375 227.04234Q76.859375 227.21422 77.296875 227.6986Q77.75 228.16734 77.984375 228.85484Q78.21875 229.54234 78.21875 230.54234Q78.21875 231.43297 78.0 232.0736Q77.734375 232.85484 77.234375 233.33922Q76.859375 233.6986 76.21875 233.90172Q75.75 234.05797 74.9375 234.05797L72.21875 234.05797L72.21875 226.90172ZM73.671875 228.10484L73.671875 232.85484L74.75 232.85484Q75.359375 232.85484 75.625 232.77672Q75.96875 232.6986 76.203125 232.49547Q76.4375 232.27672 76.578125 231.79234Q76.734375 231.30797 76.734375 230.47984Q76.734375 229.65172 76.578125 229.21422Q76.4375 228.7611 76.171875 228.5111Q75.90625 228.2611 75.5 228.18297Q75.203125 228.10484 74.3125 228.10484L73.671875 228.10484Z" fill-rule="nonzero"/><path fill="#000000" d="M55.25 261.68115L55.25 254.5249L56.65625 254.5249L59.578125 259.30615L59.578125 254.5249L60.921875 254.5249L60.921875 261.68115L59.46875 261.68115L56.578125 257.00928L56.578125 261.68115L55.25 261.68115ZM62.234375 261.68115L62.234375 254.5249L64.546875 254.5249Q65.859375 254.5249 66.265625 254.63428Q66.875 254.79053 67.296875 255.3374Q67.71875 255.86865 67.71875 256.72803Q67.71875 257.38428 67.46875 257.8374Q67.234375 258.2749 66.859375 258.54053Q66.5 258.79053 66.109375 258.88428Q65.59375 258.97803 64.609375 258.97803L63.671875 258.97803L63.671875 261.68115L62.234375 261.68115ZM63.671875 255.72803L63.671875 257.75928L64.46875 257.75928Q65.3125 257.75928 65.59375 257.6499Q65.890625 257.54053 66.046875 257.30615Q66.21875 257.05615 66.21875 256.74365Q66.21875 256.35303 65.984375 256.10303Q65.765625 255.85303 65.40625 255.7749Q65.15625 255.72803 64.375 255.72803L63.671875 255.72803ZM69.1875 261.68115L69.1875 254.5249L70.625 254.5249L70.625 261.68115L69.1875 261.68115ZM72.21875 254.5249L73.65625 254.5249L73.65625 258.3999Q73.65625 259.32178 73.71875 259.60303Q73.8125 260.04053 74.15625 260.30615Q74.515625 260.57178 75.109375 260.57178Q75.734375 260.57178 76.046875 260.32178Q76.359375 260.07178 76.421875 259.7124Q76.484375 259.3374 76.484375 258.47803L76.484375 254.5249L77.921875 254.5249L77.921875 258.2749Q77.921875 259.57178 77.796875 260.10303Q77.6875 260.63428 77.375 261.00928Q77.0625 261.36865 76.53125 261.5874Q76.0 261.80615 75.15625 261.80615Q74.125 261.80615 73.59375 261.57178Q73.078125 261.32178 72.765625 260.94678Q72.453125 260.57178 72.359375 260.1499Q72.21875 259.54053 72.21875 258.3374L72.21875 254.5249Z" fill-rule="nonzero"/><path fill="#000000" d="M54.21875 275.6481L55.65625 275.6481L55.65625 279.5231Q55.65625 280.44498 55.71875 280.72623Q55.8125 281.16373 56.15625 281.42935Q56.515625 281.69498 57.109375 281.69498Q57.734375 281.69498 58.046875 281.44498Q58.359375 281.19498 58.421875 280.8356Q58.484375 280.4606 58.484375 279.60123L58.484375 275.6481L59.921875 275.6481L59.921875 279.3981Q59.921875 280.69498 59.796875 281.22623Q59.6875 281.75748 59.375 282.13248Q59.0625 282.49185 58.53125 282.7106Q58.0 282.92935 57.15625 282.92935Q56.125 282.92935 55.59375 282.69498Q55.078125 282.44498 54.765625 282.06998Q54.453125 281.69498 54.359375 281.2731Q54.21875 280.66373 54.21875 279.4606L54.21875 275.6481ZM64.5625 280.17935L64.5625 278.9606L67.671875 278.9606L67.671875 281.81998Q67.21875 282.25748 66.359375 282.60123Q65.5 282.92935 64.609375 282.92935Q63.484375 282.92935 62.640625 282.4606Q61.8125 281.97623 61.390625 281.10123Q60.984375 280.22623 60.984375 279.19498Q60.984375 278.0856 61.453125 277.22623Q61.921875 276.35123 62.8125 275.88248Q63.515625 275.5231 64.53125 275.5231Q65.859375 275.5231 66.609375 276.0856Q67.359375 276.6481 67.578125 277.63248L66.140625 277.8981Q66.0 277.36685 65.578125 277.06998Q65.15625 276.75748 64.53125 276.75748Q63.59375 276.75748 63.03125 277.36685Q62.46875 277.9606 62.46875 279.1481Q62.46875 280.41373 63.03125 281.05435Q63.59375 281.69498 64.515625 281.69498Q64.96875 281.69498 65.421875 281.5231Q65.890625 281.3356 66.21875 281.0856L66.21875 280.17935L64.5625 280.17935ZM73.8125 280.17935L75.203125 280.61685Q74.890625 281.78873 74.140625 282.36685Q73.390625 282.92935 72.234375 282.92935Q70.8125 282.92935 69.890625 281.9606Q68.96875 280.97623 68.96875 279.28873Q68.96875 277.50748 69.890625 276.5231Q70.8125 275.5231 72.328125 275.5231Q73.640625 275.5231 74.453125 276.30435Q74.953125 276.75748 75.1875 277.61685L73.765625 277.9606Q73.625 277.3981 73.21875 277.0856Q72.828125 276.75748 72.25 276.75748Q71.453125 276.75748 70.953125 277.3356Q70.46875 277.8981 70.46875 279.17935Q70.46875 280.53873 70.953125 281.11685Q71.4375 281.69498 72.21875 281.69498Q72.796875 281.69498 73.203125 281.3356Q73.625 280.9606 73.8125 280.17935ZM76.0625 280.8981L76.0625 279.5231L78.765625 279.5231L78.765625 280.8981L76.0625 280.8981Z" fill-rule="nonzero"/><path fill="#000000" d="M58.21875 288.6481L60.859375 288.6481Q61.765625 288.6481 62.234375 288.78873Q62.859375 288.9606 63.296875 289.44498Q63.75 289.91373 63.984375 290.60123Q64.21875 291.28873 64.21875 292.28873Q64.21875 293.17935 64.0 293.81998Q63.734375 294.60123 63.234375 295.0856Q62.859375 295.44498 62.21875 295.6481Q61.75 295.80435 60.9375 295.80435L58.21875 295.80435L58.21875 288.6481ZM59.671875 289.85123L59.671875 294.60123L60.75 294.60123Q61.359375 294.60123 61.625 294.5231Q61.96875 294.44498 62.203125 294.24185Q62.4375 294.0231 62.578125 293.53873Q62.734375 293.05435 62.734375 292.22623Q62.734375 291.3981 62.578125 290.9606Q62.4375 290.50748 62.171875 290.25748Q61.90625 290.00748 61.5 289.92935Q61.203125 289.85123 60.3125 289.85123L59.671875 289.85123ZM71.6875 295.80435L70.109375 295.80435L69.484375 294.17935L66.625 294.17935L66.03125 295.80435L64.5 295.80435L67.28125 288.6481L68.8125 288.6481L71.6875 295.80435ZM69.015625 292.97623L68.03125 290.31998L67.0625 292.97623L69.015625 292.97623ZM72.234375 295.80435L72.234375 288.6481L77.53125 288.6481L77.53125 289.85123L73.671875 289.85123L73.671875 291.44498L77.265625 291.44498L77.265625 292.6481L73.671875 292.6481L73.671875 294.60123L77.671875 294.60123L77.671875 295.80435L72.234375 295.80435Z" fill-rule="nonzero"/><path fill="#000000" d="M83.296875 312.825Q84.546875 312.825 85.25 313.71564Q86.078125 314.7625 86.078125 317.21564Q86.078125 319.65314 85.234375 320.71564Q84.546875 321.59064 83.296875 321.59064Q82.046875 321.59064 81.265625 320.6375Q80.5 319.66876 80.5 317.2Q80.5 314.7625 81.34375 313.7Q82.046875 312.825 83.296875 312.825ZM83.296875 314.1844Q83.0 314.1844 82.765625 314.3875Q82.53125 314.575 82.390625 315.0594Q82.234375 315.7 82.234375 317.21564Q82.234375 318.73126 82.375 319.29376Q82.53125 319.85626 82.765625 320.04376Q83.0 320.23126 83.296875 320.23126Q83.59375 320.23126 83.828125 320.04376Q84.0625 319.85626 84.1875 319.35626Q84.359375 318.73126 84.359375 317.21564Q84.359375 315.7 84.203125 315.1375Q84.0625 314.575 83.828125 314.3875Q83.59375 314.1844 83.296875 314.1844Z" fill-rule="nonzero"/><path fill="#000000" d="M171.31876 321.45L169.67813 321.45L169.67813 315.2469Q168.77188 316.09064 167.55313 316.4969L167.55313 314.9969Q168.19376 314.79376 168.94376 314.2Q169.70938 313.60626 169.99063 312.825L171.31876 312.825L171.31876 321.45ZM176.89688 312.825Q178.14688 312.825 178.85 313.71564Q179.67813 314.7625 179.67813 317.21564Q179.67813 319.65314 178.83438 320.71564Q178.14688 321.59064 176.89688 321.59064Q175.64688 321.59064 174.86563 320.6375Q174.1 319.66876 174.1 317.2Q174.1 314.7625 174.94376 313.7Q175.64688 312.825 176.89688 312.825ZM176.89688 314.1844Q176.6 314.1844 176.36563 314.3875Q176.13126 314.575 175.99063 315.0594Q175.83438 315.7 175.83438 317.21564Q175.83438 318.73126 175.975 319.29376Q176.13126 319.85626 176.36563 320.04376Q176.6 320.23126 176.89688 320.23126Q177.19376 320.23126 177.42813 320.04376Q177.6625 319.85626 177.7875 319.35626Q177.95938 318.73126 177.95938 317.21564Q177.95938 315.7 177.80313 315.1375Q177.6625 314.575 177.42813 314.3875Q177.19376 314.1844 176.89688 314.1844ZM183.89688 312.825Q185.14688 312.825 185.85 313.71564Q186.67813 314.7625 186.67813 317.21564Q186.67813 319.65314 185.83438 320.71564Q185.14688 321.59064 183.89688 321.59064Q182.64688 321.59064 181.86563 320.6375Q181.1 319.66876 181.1 317.2Q181.1 314.7625 181.94376 313.7Q182.64688 312.825 183.89688 312.825ZM183.89688 314.1844Q183.6 314.1844 183.36563 314.3875Q183.13126 314.575 182.99063 315.0594Q182.83438 315.7 182.83438 317.21564Q182.83438 318.73126 182.975 319.29376Q183.13126 319.85626 183.36563 320.04376Q183.6 320.23126 183.89688 320.23126Q184.19376 320.23126 184.42813 320.04376Q184.6625 319.85626 184.7875 319.35626Q184.95938 318.73126 184.95938 317.21564Q184.95938 315.7 184.80313 315.1375Q184.6625 314.575 184.42813 314.3875Q184.19376 314.1844 183.89688 314.1844Z" fill-rule="nonzero"/><path fill="#000000" d="M266.27814 319.91876L266.27814 321.45L260.4969 321.45Q260.59064 320.575 261.0594 319.8094Q261.52814 319.02814 262.91876 317.7469Q264.02814 316.71564 264.27814 316.34064Q264.6219 315.825 264.6219 315.325Q264.6219 314.77814 264.325 314.48126Q264.02814 314.1844 263.5125 314.1844Q262.9969 314.1844 262.6844 314.4969Q262.3875 314.8094 262.34064 315.52814L260.7 315.3719Q260.84064 314.0125 261.60626 313.41876Q262.3875 312.825 263.54376 312.825Q264.825 312.825 265.54376 313.5125Q266.27814 314.2 266.27814 315.21564Q266.27814 315.79376 266.0594 316.325Q265.85626 316.84064 265.40314 317.41876Q265.10626 317.79376 264.325 318.5125Q263.54376 319.23126 263.34064 319.46564Q263.1375 319.7 262.9969 319.91876L266.27814 319.91876ZM270.4969 312.825Q271.7469 312.825 272.45 313.71564Q273.27814 314.7625 273.27814 317.21564Q273.27814 319.65314 272.4344 320.71564Q271.7469 321.59064 270.4969 321.59064Q269.2469 321.59064 268.46564 320.6375Q267.7 319.66876 267.7 317.2Q267.7 314.7625 268.54376 313.7Q269.2469 312.825 270.4969 312.825ZM270.4969 314.1844Q270.2 314.1844 269.96564 314.3875Q269.73126 314.575 269.59064 315.0594Q269.4344 315.7 269.4344 317.21564Q269.4344 318.73126 269.575 319.29376Q269.73126 319.85626 269.96564 320.04376Q270.2 320.23126 270.4969 320.23126Q270.79376 320.23126 271.02814 320.04376Q271.2625 319.85626 271.3875 319.35626Q271.5594 318.73126 271.5594 317.21564Q271.5594 315.7 271.40314 315.1375Q271.2625 314.575 271.02814 314.3875Q270.79376 314.1844 270.4969 314.1844ZM277.4969 312.825Q278.7469 312.825 279.45 313.71564Q280.27814 314.7625 280.27814 317.21564Q280.27814 319.65314 279.4344 320.71564Q278.7469 321.59064 277.4969 321.59064Q276.2469 321.59064 275.46564 320.6375Q274.7 319.66876 274.7 317.2Q274.7 314.7625 275.54376 313.7Q276.2469 312.825 277.4969 312.825ZM277.4969 314.1844Q277.2 314.1844 276.96564 314.3875Q276.73126 314.575 276.59064 315.0594Q276.4344 315.7 276.4344 317.21564Q276.4344 318.73126 276.575 319.29376Q276.73126 319.85626 276.96564 320.04376Q277.2 320.23126 277.4969 320.23126Q277.79376 320.23126 278.02814 320.04376Q278.2625 319.85626 278.3875 319.35626Q278.5594 318.73126 278.5594 317.21564Q278.5594 315.7 278.40314 315.1375Q278.2625 314.575 278.02814 314.3875Q277.79376 314.1844 277.4969 314.1844Z" fill-rule="nonzero"/><path fill="#000000" d="M354.2531 319.16876L355.84686 318.98126Q355.925 319.59064 356.2531 319.91876Q356.59686 320.23126 357.0656 320.23126Q357.58124 320.23126 357.925 319.84064Q358.26874 319.45 358.26874 318.79376Q358.26874 318.1844 357.925 317.825Q357.59686 317.45 357.1281 317.45Q356.8 317.45 356.3625 317.575L356.55 316.23126Q357.22186 316.2469 357.5656 315.95Q357.925 315.6375 357.925 315.1219Q357.925 314.7 357.65936 314.45Q357.40936 314.1844 356.97186 314.1844Q356.55 314.1844 356.2531 314.48126Q355.95624 314.7625 355.89374 315.325L354.3781 315.075Q354.53436 314.29376 354.84686 313.825Q355.175 313.35626 355.7375 313.09064Q356.3156 312.825 357.01874 312.825Q358.2375 312.825 358.97186 313.59064Q359.5656 314.23126 359.5656 315.02814Q359.5656 316.15314 358.33124 316.825Q359.08124 316.9969 359.51874 317.54376Q359.95624 318.09064 359.95624 318.8719Q359.95624 319.9969 359.1281 320.79376Q358.3 321.59064 357.08124 321.59064Q355.90936 321.59064 355.14374 320.91876Q354.3781 320.2469 354.2531 319.16876ZM364.09686 312.825Q365.34686 312.825 366.05 313.71564Q366.8781 314.7625 366.8781 317.21564Q366.8781 319.65314 366.03436 320.71564Q365.34686 321.59064 364.09686 321.59064Q362.84686 321.59064 362.0656 320.6375Q361.3 319.66876 361.3 317.2Q361.3 314.7625 362.14374 313.7Q362.84686 312.825 364.09686 312.825ZM364.09686 314.1844Q363.8 314.1844 363.5656 314.3875Q363.33124 314.575 363.1906 315.0594Q363.03436 315.7 363.03436 317.21564Q363.03436 318.73126 363.175 319.29376Q363.33124 319.85626 363.5656 320.04376Q363.8 320.23126 364.09686 320.23126Q364.39374 320.23126 364.6281 320.04376Q364.8625 319.85626 364.9875 319.35626Q365.15936 318.73126 365.15936 317.21564Q365.15936 315.7 365.0031 315.1375Q364.8625 314.575 364.6281 314.3875Q364.39374 314.1844 364.09686 314.1844ZM371.09686 312.825Q372.34686 312.825 373.05 313.71564Q373.8781 314.7625 373.8781 317.21564Q373.8781 319.65314 373.03436 320.71564Q372.34686 321.59064 371.09686 321.59064Q369.84686 321.59064 369.0656 320.6375Q368.3 319.66876 368.3 317.2Q368.3 314.7625 369.14374 313.7Q369.84686 312.825 371.09686 312.825ZM371.09686 314.1844Q370.8 314.1844 370.5656 314.3875Q370.33124 314.575 370.1906 315.0594Q370.03436 315.7 370.03436 317.21564Q370.03436 318.73126 370.175 319.29376Q370.33124 319.85626 370.5656 320.04376Q370.8 320.23126 371.09686 320.23126Q371.39374 320.23126 371.6281 320.04376Q371.8625 319.85626 371.9875 319.35626Q372.15936 318.73126 372.15936 317.21564Q372.15936 315.7 372.0031 315.1375Q371.8625 314.575 371.6281 314.3875Q371.39374 314.1844 371.09686 314.1844Z" fill-rule="nonzero"/><path fill="#000000" d="M451.13437 321.45L451.13437 319.71564L447.61874 319.71564L447.61874 318.27814L451.35312 312.825L452.72812 312.825L452.72812 318.27814L453.80624 318.27814L453.80624 319.71564L452.72812 319.71564L452.72812 321.45L451.13437 321.45ZM451.13437 318.27814L451.13437 315.34064L449.16562 318.27814L451.13437 318.27814ZM457.69687 312.825Q458.94687 312.825 459.65 313.71564Q460.47812 314.7625 460.47812 317.21564Q460.47812 319.65314 459.63437 320.71564Q458.94687 321.59064 457.69687 321.59064Q456.44687 321.59064 455.66562 320.6375Q454.9 319.66876 454.9 317.2Q454.9 314.7625 455.74374 313.7Q456.44687 312.825 457.69687 312.825ZM457.69687 314.1844Q457.4 314.1844 457.16562 314.3875Q456.93124 314.575 456.79062 315.0594Q456.63437 315.7 456.63437 317.21564Q456.63437 318.73126 456.775 319.29376Q456.93124 319.85626 457.16562 320.04376Q457.4 320.23126 457.69687 320.23126Q457.99374 320.23126 458.22812 320.04376Q458.4625 319.85626 458.5875 319.35626Q458.75937 318.73126 458.75937 317.21564Q458.75937 315.7 458.60312 315.1375Q458.4625 314.575 458.22812 314.3875Q457.99374 314.1844 457.69687 314.1844ZM464.69687 312.825Q465.94687 312.825 466.65 313.71564Q467.47812 314.7625 467.47812 317.21564Q467.47812 319.65314 466.63437 320.71564Q465.94687 321.59064 464.69687 321.59064Q463.44687 321.59064 462.66562 320.6375Q461.9 319.66876 461.9 317.2Q461.9 314.7625 462.74374 313.7Q463.44687 312.825 464.69687 312.825ZM464.69687 314.1844Q464.4 314.1844 464.16562 314.3875Q463.93124 314.575 463.79062 315.0594Q463.63437 315.7 463.63437 317.21564Q463.63437 318.73126 463.775 319.29376Q463.93124 319.85626 464.16562 320.04376Q464.4 320.23126 464.69687 320.23126Q464.99374 320.23126 465.22812 320.04376Q465.4625 319.85626 465.5875 319.35626Q465.75937 318.73126 465.75937 317.21564Q465.75937 315.7 465.60312 315.1375Q465.4625 314.575 465.22812 314.3875Q464.99374 314.1844 464.69687 314.1844Z" fill-rule="nonzero"/><path fill="#000000" d="M541.53125 319.2469L543.1719 319.075Q543.25 319.6219 543.59375 319.95Q543.9375 320.27814 544.3906 320.27814Q544.90625 320.27814 545.2656 319.85626Q545.625 319.4344 545.625 318.59064Q545.625 317.8094 545.2656 317.41876Q544.90625 317.0125 544.34375 317.0125Q543.625 317.0125 543.0625 317.6375L541.7344 317.45L542.5781 312.98126L546.9375 312.98126L546.9375 314.5125L543.8281 314.5125L543.5625 315.98126Q544.125 315.7 544.6875 315.7Q545.78125 315.7 546.5469 316.4969Q547.3125 317.29376 547.3125 318.5594Q547.3125 319.6219 546.7031 320.46564Q545.8594 321.59064 544.375 321.59064Q543.1875 321.59064 542.4375 320.96564Q541.6875 320.325 541.53125 319.2469ZM551.2969 312.825Q552.5469 312.825 553.25 313.71564Q554.0781 314.7625 554.0781 317.21564Q554.0781 319.65314 553.2344 320.71564Q552.5469 321.59064 551.2969 321.59064Q550.0469 321.59064 549.2656 320.6375Q548.5 319.66876 548.5 317.2Q548.5 314.7625 549.34375 313.7Q550.0469 312.825 551.2969 312.825ZM551.2969 314.1844Q551.0 314.1844 550.7656 314.3875Q550.53125 314.575 550.3906 315.0594Q550.2344 315.7 550.2344 317.21564Q550.2344 318.73126 550.375 319.29376Q550.53125 319.85626 550.7656 320.04376Q551.0 320.23126 551.2969 320.23126Q551.59375 320.23126 551.8281 320.04376Q552.0625 319.85626 552.1875 319.35626Q552.3594 318.73126 552.3594 317.21564Q552.3594 315.7 552.2031 315.1375Q552.0625 314.575 551.8281 314.3875Q551.59375 314.1844 551.2969 314.1844ZM558.2969 312.825Q559.5469 312.825 560.25 313.71564Q561.0781 314.7625 561.0781 317.21564Q561.0781 319.65314 560.2344 320.71564Q559.5469 321.59064 558.2969 321.59064Q557.0469 321.59064 556.2656 320.6375Q555.5 319.66876 555.5 317.2Q555.5 314.7625 556.34375 313.7Q557.0469 312.825 558.2969 312.825ZM558.2969 314.1844Q558.0 314.1844 557.7656 314.3875Q557.53125 314.575 557.3906 315.0594Q557.2344 315.7 557.2344 317.21564Q557.2344 318.73126 557.375 319.29376Q557.53125 319.85626 557.7656 320.04376Q558.0 320.23126 558.2969 320.23126Q558.59375 320.23126 558.8281 320.04376Q559.0625 319.85626 559.1875 319.35626Q559.3594 318.73126 559.3594 317.21564Q559.3594 315.7 559.2031 315.1375Q559.0625 314.575 558.8281 314.3875Q558.59375 314.1844 558.2969 314.1844Z" fill-rule="nonzero"/></svg>